<svg width="43" height="41" viewBox="0 0 43 41" fill="none" xmlns="http://www.w3.org/2000/svg">
<g clip-path="url(#clip0_152_707)">
<path d="M29.4258 26.9083C28.7524 26.9083 28.2031 26.36 28.2031 25.6803V24.0254C28.2031 23.349 28.7491 22.7974 29.4258 22.7974C30.1025 22.7974 30.6485 23.3457 30.6485 24.0254V25.6803C30.6485 26.3567 30.1025 26.9083 29.4258 26.9083Z" fill="#E06C27"/>
<path d="M14.0821 26.9083C13.4086 26.9083 12.8594 26.36 12.8594 25.6803V24.0254C12.8594 23.349 13.4053 22.7974 14.0821 22.7974C14.7588 22.7974 15.3047 23.3457 15.3047 24.0254V25.6803C15.3047 26.3567 14.7588 26.9083 14.0821 26.9083Z" fill="#E06C27"/>
<path d="M21.756 34.907C19.9677 34.907 18.2743 34.339 17.2314 33.3835C16.8979 33.0781 16.875 32.5626 17.1758 32.2277C17.4798 31.8928 17.9931 31.8698 18.3266 32.1719C19.0785 32.8581 20.36 33.2686 21.756 33.2686C23.1519 33.2686 24.4335 32.8581 25.1854 32.1719C25.5188 31.8665 26.0321 31.8928 26.3361 32.2277C26.6369 32.5626 26.614 33.0781 26.2806 33.3835C25.2344 34.3357 23.5442 34.907 21.756 34.907Z" fill="#E06C27"/>
<path d="M21.6042 40.2099C14.8271 40.2099 8.6385 35.9413 6.2062 29.5844C6.04601 29.1641 6.25524 28.688 6.6737 28.5271C7.09543 28.3662 7.5662 28.5764 7.72639 28.9967C9.92003 34.7232 15.4973 38.5715 21.6042 38.5715C27.7111 38.5715 33.2949 34.7199 35.4853 28.9835C35.6455 28.5632 36.1163 28.3498 36.538 28.514C36.9564 28.6749 37.1689 29.1477 37.0055 29.5713C34.5765 35.9348 28.3846 40.2067 21.6042 40.2067V40.2099Z" fill="#E06C27"/>
<path d="M6.96343 30.1098C6.96343 30.1098 6.94055 30.1098 6.93074 30.1098C1.84384 29.903 0 26.012 0 23.4475C0 20.6664 1.73922 18.7258 4.2271 18.7258C4.63248 18.7258 5.04113 18.7817 5.43998 18.8867C5.87478 19.0049 6.13305 19.4515 6.01536 19.8882C5.89767 20.3249 5.45305 20.5843 5.01825 20.4661C4.75671 20.3939 4.48863 20.361 4.2271 20.361C2.4323 20.361 1.62807 21.9109 1.62807 23.4475C1.62807 24.7839 2.59249 28.294 6.99612 28.4746C7.44401 28.4943 7.79381 28.8752 7.77747 29.3251C7.76112 29.7651 7.39824 30.1098 6.96343 30.1098Z" fill="#E06C27"/>
<path d="M36.2422 30.0967C35.8172 30.0967 35.4576 29.7651 35.4315 29.3316C35.402 28.8818 35.742 28.4911 36.1932 28.4648C40.2895 28.2054 41.3716 25.0696 41.3716 23.4508C41.3716 21.9141 40.5674 20.3643 38.7726 20.3643C38.6484 20.3643 38.5209 20.3742 38.3901 20.3906C37.939 20.4464 37.5368 20.1312 37.478 19.6813C37.4224 19.2348 37.7363 18.8243 38.1841 18.7652C38.3836 18.739 38.5797 18.7258 38.7726 18.7258C41.2605 18.7258 42.9997 20.6664 42.9997 23.4475C42.9997 25.9496 41.2147 29.7815 36.2945 30.0967C36.2782 30.0967 36.2586 30.0967 36.2422 30.0967Z" fill="#E06C27"/>
<path d="M14.1654 33.0945C14.0738 33.0945 13.9823 33.0781 13.894 33.0519C13.7469 33.0026 12.4196 32.5134 11.21 30.1394C11.0564 29.834 10.8439 29.6501 10.5496 29.5582C9.74213 29.3053 8.52271 29.8044 8.15982 30.0015C7.76425 30.2149 7.2706 30.0638 7.0581 29.6665C6.8456 29.2692 6.99271 28.7734 7.39156 28.56C7.59752 28.4483 9.43809 27.4961 11.0367 27.9985C11.7462 28.2218 12.3085 28.7045 12.6615 29.3973C13.1061 30.2674 13.541 30.7928 13.8711 31.1014C14.6884 30.0277 16.735 28.4746 21.7598 28.4746C22.2109 28.4746 22.5738 28.8424 22.5738 29.2922C22.5738 29.7421 22.2076 30.1098 21.7598 30.1098C15.7902 30.1098 14.9402 32.4838 14.9304 32.5068C14.8715 32.7235 14.7309 32.8975 14.5348 33.0026C14.4204 33.065 14.2929 33.0945 14.1686 33.0945H14.1654Z" fill="#E06C27"/>
<path d="M29.3662 33.0913C29.2321 33.0913 29.0981 33.0584 28.9771 32.9928C28.781 32.8844 28.6371 32.7005 28.5783 32.4838C28.5783 32.4838 27.725 30.1098 21.7554 30.1098C21.3043 30.1098 20.9414 29.7421 20.9414 29.2922C20.9414 28.8424 21.3076 28.4746 21.7554 28.4746C26.7802 28.4746 28.8268 30.0277 29.6441 31.1015C29.971 30.7928 30.4058 30.2674 30.8504 29.394C31.2035 28.7012 31.7658 28.2185 32.4752 27.9952C34.0738 27.4929 35.9144 28.4484 36.1204 28.5567C36.516 28.7702 36.6663 29.266 36.4538 29.6633C36.2413 30.0606 35.7477 30.2116 35.3521 29.9982C34.9598 29.788 33.7633 29.3021 32.959 29.5549C32.6648 29.6469 32.4556 29.8307 32.3019 30.1361C31.0923 32.5101 29.765 32.9993 29.6179 33.0486C29.5362 33.0749 29.4512 33.088 29.3662 33.088V33.0913Z" fill="#E06C27"/>
<path d="M38.2882 20.3971C37.837 20.3971 37.4741 20.0261 37.4741 19.573C37.4741 19.5598 37.4741 19.527 37.4741 19.5139C37.4741 15.5047 35.9638 11.6728 33.2242 8.73402C32.9169 8.40567 32.9332 7.88687 33.2601 7.57822C33.587 7.26957 34.1036 7.28598 34.4109 7.61434C37.4382 10.8552 39.1022 15.0844 39.1022 19.5237C39.1022 19.5368 39.1022 19.5697 39.1022 19.5795C39.1022 20.0327 38.7361 20.3906 38.2882 20.3906V20.3971Z" fill="#E06C27"/>
<path d="M5.23137 20.4956C4.78348 20.4956 4.4206 20.1344 4.41733 19.6813V19.6353C4.41733 19.5992 4.41406 19.5664 4.41406 19.5303C4.41406 9.92266 12.1948 2.10785 21.7605 2.10785C22.2117 2.10785 22.5746 2.4756 22.5746 2.92545C22.5746 3.37529 22.2084 3.74305 21.7605 3.74305C13.0938 3.74305 6.0454 10.8256 6.0454 19.527V19.6715C6.05194 20.1246 5.68906 20.4924 5.24117 20.4956H5.23464H5.23137Z" fill="#E06C27"/>
<path d="M6.77771 24.2487H5.2281C4.77695 24.2487 4.41406 23.8809 4.41406 23.4311V19.678C4.41406 19.2249 4.78021 18.8604 5.2281 18.8604C5.67598 18.8604 6.04213 19.2282 6.04213 19.678V22.6135H6.77771C7.4152 22.6135 7.93174 22.1604 7.93174 21.6022V19.5401C7.93174 19.3168 8.02328 19.1001 8.18674 18.9458C8.3502 18.7915 8.5627 18.7094 8.79154 18.7225C8.81116 18.7225 10.9329 18.8144 12.0836 17.7145C12.5838 17.2384 12.8258 16.6013 12.8258 15.7706C12.8258 15.4587 13.0023 15.173 13.2802 15.0351C13.5581 14.8972 13.8915 14.93 14.1367 15.1205C15.8432 16.4405 18.6744 17.1366 22.3261 17.1366C28.773 17.1366 31.1366 13.7578 33.0426 7.91969C33.1832 7.48954 33.6409 7.25641 34.0691 7.3976C34.4974 7.5388 34.7295 8.00177 34.5889 8.42863C32.8791 13.6626 30.5253 18.775 22.3261 18.775C18.949 18.775 16.2454 18.23 14.2675 17.1497C14.0681 17.8294 13.7117 18.4171 13.1984 18.9064C12.0935 19.9604 10.5242 20.2559 9.55981 20.3347V21.5989C9.55981 23.0568 8.31097 24.2454 6.77771 24.2454V24.2487Z" fill="#E06C27"/>
<path d="M33.8162 8.99671C33.7312 8.99671 33.6462 8.98357 33.5612 8.9573C33.133 8.81611 32.9008 8.35314 33.0414 7.92628C33.316 7.08569 33.5416 6.41585 33.8391 5.549C34.1497 4.63618 34.0222 3.92036 33.5024 3.68067C33.0839 3.48694 32.4268 3.63141 31.9658 4.40961C31.5932 5.04005 31.1714 5.75586 30.4358 5.43407C29.6872 5.109 29.8768 4.44901 30.2953 3.00098C30.4653 2.41651 30.2332 2.06189 29.9585 1.92726C29.6414 1.76965 29.0987 1.8189 28.6084 2.48218C27.402 4.12066 25.7347 3.9926 23.8059 3.84813C23.1618 3.79887 22.4949 3.74962 21.7593 3.74962C21.3082 3.74962 20.9453 3.38187 20.9453 2.93202C20.9453 2.48218 21.3115 2.11442 21.7593 2.11442C22.557 2.11442 23.2861 2.17024 23.9301 2.21949C25.8034 2.36069 26.6566 2.38696 27.3007 1.51354C28.3174 0.134452 29.7297 -0.00674051 30.681 0.466088C31.397 0.82071 31.8449 1.4807 31.956 2.25561C32.7145 1.88786 33.5383 1.90099 34.1889 2.20308C35.271 2.70546 36.0622 4.10424 35.3822 6.09078C35.0879 6.95107 34.8624 7.61762 34.591 8.44836C34.4799 8.79313 34.1595 9.01312 33.8162 9.01312V8.99671Z" fill="#E06C27"/>
<path d="M38.2901 24.2487H36.8908C35.2889 24.2487 33.9878 23.0108 33.9878 21.4906V20.3348C33.0233 20.256 31.4541 19.9604 30.3491 18.9064C29.5155 18.1151 29.0938 17.0578 29.0938 15.7674C29.0938 15.3142 29.4599 14.9498 29.9078 14.9498C30.3557 14.9498 30.7218 15.3175 30.7218 15.7674C30.7218 16.5981 30.9637 17.2351 31.4639 17.7112C32.618 18.8112 34.7397 18.7225 34.7593 18.7193C34.9849 18.7094 35.2006 18.7882 35.3608 18.9425C35.521 19.0969 35.6158 19.3103 35.6158 19.5336V21.484C35.6158 22.1013 36.1879 22.6037 36.8908 22.6037H37.476V20.1476C37.476 19.6945 37.8422 19.33 38.2901 19.33C38.7379 19.33 39.1041 19.6978 39.1041 20.1476V23.4213C39.1041 23.8744 38.7379 24.2389 38.2901 24.2389V24.2487Z" fill="#E06C27"/>
</g>
<defs>
<clipPath id="clip0_152_707">
<rect width="43" height="40" fill="white" transform="translate(0 0.209961)"/>
</clipPath>
</defs>
</svg>
