<svg width="58" height="40" viewBox="0 0 58 40" fill="none" xmlns="http://www.w3.org/2000/svg">
<g clip-path="url(#clip0_152_702)">
<path d="M34.4541 24.585C37.1207 22.8369 38.888 19.8484 38.888 16.46C38.888 11.0826 34.4541 6.70996 29.0013 6.70996C23.5485 6.70996 19.1146 11.0826 19.1146 16.46C19.1146 19.8484 20.8767 22.8369 23.5485 24.585C17.5084 26.7841 13.1836 32.4998 13.1836 39.21H15.819C15.819 32.0436 21.7344 26.21 29.0013 26.21C36.2682 26.21 42.1836 32.0436 42.1836 39.21H44.819C44.819 32.4998 40.4942 26.7841 34.4541 24.585ZM21.75 16.46C21.75 12.5179 25.004 9.30894 29.0013 9.30894C32.9986 9.30894 36.2526 12.5179 36.2526 16.46C36.2526 20.402 32.9986 23.611 29.0013 23.611C25.004 23.611 21.75 20.402 21.75 16.46Z" fill="#4992E1"/>
<path d="M47.6365 18.085C50.3031 16.3369 52.0704 13.3484 52.0704 9.95996C52.0704 4.5826 47.6365 0.209961 42.1837 0.209961C39.5431 0.209961 37.1468 1.24032 35.3691 2.91146C34.7141 3.53173 34.1423 4.23401 33.6797 5.01319C34.501 5.34127 35.2859 5.74624 36.0084 6.23323C36.4762 5.4848 37.074 4.82865 37.7758 4.29553C38.9973 3.36769 40.5203 2.81406 42.1785 2.81406C46.1758 2.81406 49.4298 6.02305 49.4298 9.96509C49.4298 13.2356 47.1843 15.9986 44.1382 16.8444C43.5144 17.0187 42.8595 17.1161 42.1785 17.1161C41.9446 17.1161 41.7159 17.1007 41.4872 17.0802C41.4404 18.0183 41.2897 18.9257 41.0453 19.792C41.4196 19.7612 41.7939 19.71 42.1785 19.71C42.7139 19.71 43.2389 19.751 43.7587 19.8125C50.2823 20.5865 55.3608 26.0716 55.3608 32.71H57.9962C57.9962 25.9998 53.6714 20.2841 47.6313 18.085H47.6365Z" fill="#E06C27"/>
<path d="M15.8177 19.71C16.2024 19.71 16.5766 19.7561 16.9509 19.792C16.7014 18.9205 16.5558 18.0132 16.5091 17.0802C16.2803 17.1007 16.0516 17.1161 15.8177 17.1161C15.1368 17.1161 14.4818 17.0187 13.858 16.8444C10.812 15.9986 8.56641 13.2407 8.56641 9.96509C8.56641 6.02305 11.8204 2.81406 15.8177 2.81406C17.4759 2.81406 18.9989 3.37282 20.2205 4.29553C20.9222 4.82865 21.5252 5.4848 21.9878 6.23323C22.7155 5.74624 23.4953 5.34127 24.3165 5.01319C23.8487 4.23914 23.2821 3.53173 22.6272 2.91146C20.8546 1.24032 18.4531 0.209961 15.8125 0.209961C10.3649 0.209961 5.93099 4.5826 5.93099 9.95996C5.93099 13.3484 7.69314 16.3369 10.3649 18.085C4.32479 20.2841 0 25.9998 0 32.71H2.63542C2.63542 26.0716 7.71393 20.5865 14.2375 19.8125C14.7573 19.751 15.2823 19.71 15.8177 19.71Z" fill="#E06C27"/>
</g>
<defs>
<clipPath id="clip0_152_702">
<rect width="58" height="39" fill="white" transform="translate(0 0.209961)"/>
</clipPath>
</defs>
</svg>
