
<svg width="33" height="43" viewBox="0 0 33 43" fill="none" xmlns="http://www.w3.org/2000/svg">
<path fill-rule="evenodd" clip-rule="evenodd" d="M24.2653 30.4361H26.2383C26.1772 30.4956 26.1265 30.5675 26.0903 30.6496C26.0768 30.6804 25.4464 32.0549 24.1742 33.4109C23.1484 32.2468 22.4466 31.1495 22.0398 30.4361H24.2664H24.2653Z" fill="#E06C27"/>
<path fill-rule="evenodd" clip-rule="evenodd" d="M18.3995 26.1115H30.1099C31.704 26.1115 33 27.3966 33 28.9764V35.0994C33 36.6802 31.704 37.9654 30.1099 37.9654C29.7248 37.9654 29.4133 38.2754 29.4133 38.6562V42.2089L24.1921 38.1142C24.0699 38.0167 23.9178 37.9654 23.7604 37.9654H18.1862C16.5921 37.9654 15.2961 36.6802 15.2961 35.0994V31.7931C15.2961 31.7931 15.2961 31.7869 15.2961 31.7839C15.2961 31.7808 15.2961 31.7777 15.2961 31.7746V28.9764C15.2961 27.3966 16.5921 26.1115 18.1862 26.1115H18.3995ZM23.5679 29.0544H20.0764C19.6913 29.0544 19.3797 29.3644 19.3797 29.7452C19.3797 30.1261 19.6913 30.4361 20.0764 30.4361H20.4583C20.7647 31.0571 21.6249 32.6441 23.1497 34.3614C22.2295 35.0994 21.0898 35.7215 19.7255 35.9576C19.3466 36.0233 19.092 36.3815 19.1582 36.7562C19.2183 37.0918 19.5122 37.3279 19.8435 37.3279C19.8828 37.3279 19.9242 37.3238 19.9646 37.3177C21.6508 37.0251 23.0286 36.2635 24.1175 35.3735C25.0326 36.2624 26.1278 37.1432 27.4175 37.9038C27.5304 37.9695 27.6525 38.0013 27.7736 38.0013C28.0117 38.0013 28.2425 37.8812 28.373 37.6626C28.5696 37.3351 28.4609 36.9112 28.1297 36.7162C26.9693 36.0325 25.9756 35.2339 25.1392 34.424C26.6008 32.8894 27.312 31.323 27.3647 31.2049C27.4848 30.9349 27.4155 30.6301 27.2157 30.435H28.4516C28.8367 30.435 29.1483 30.1261 29.1483 29.7442C29.1483 29.3624 28.8367 29.0534 28.4516 29.0534H24.9612V27.2929C24.9612 26.9121 24.6496 26.6021 24.2645 26.6021C23.8795 26.6021 23.5679 26.9121 23.5679 27.2929V29.0534V29.0544Z" fill="#E06C27"/>
<path fill-rule="evenodd" clip-rule="evenodd" d="M10.7967 27.1873L11.6911 29.2669C11.8039 29.5297 12.0617 29.6868 12.3329 29.6868C12.424 29.6868 12.5161 29.6693 12.6061 29.6313C12.9602 29.4815 13.1237 29.076 12.9736 28.7249L9.50385 20.6495C9.39412 20.3949 9.14259 20.2297 8.8631 20.2297C8.58465 20.2297 8.33208 20.3939 8.22235 20.6475L5.84051 26.1587C5.81671 26.2008 5.79704 26.2449 5.78255 26.2921L4.73189 28.7229C4.58076 29.0739 4.74431 29.4804 5.09833 29.6303C5.45234 29.7802 5.86122 29.618 6.01235 29.2669L6.91188 27.1862H10.7978L10.7967 27.1873ZM17.7031 24.7565C15.5676 24.9957 13.9032 26.7972 13.9032 28.9764V31.0931H9.23885C9.08151 31.0931 8.92935 31.1454 8.80617 31.2419L3.586 35.3356V31.7839C3.586 31.402 3.27442 31.0931 2.88935 31.0931C1.29525 31.0931 -0.000734329 29.8079 -0.000734329 28.2271V22.103C-0.000734329 20.5233 1.29525 19.2371 2.88935 19.2371H14.812C16.4061 19.2371 17.7021 20.5233 17.7021 22.103V24.7555L17.7031 24.7565Z" fill="#E06C27"/>
<path fill-rule="evenodd" clip-rule="evenodd" d="M8.85952 22.6789L10.2031 25.8066H7.50868L8.85952 22.6789Z" fill="#E06C27"/>
<path fill-rule="evenodd" clip-rule="evenodd" d="M0.00902939 17.1707H8.6027C8.6058 17.415 8.60994 17.6408 8.61719 17.8554H2.88877C1.85363 17.8554 0.90442 18.2208 0.163266 18.8285C0.0835609 18.2773 0.0328388 17.724 0.0100651 17.1707H0.00902939Z" fill="#E06C27"/>
<path fill-rule="evenodd" clip-rule="evenodd" d="M9.99967 17.1707H15.8047V17.9693C15.4869 17.8944 15.1557 17.8543 14.8151 17.8543H10.0152C10.008 17.6408 10.0038 17.415 10.0007 17.1697L9.99967 17.1707Z" fill="#E06C27"/>
<path fill-rule="evenodd" clip-rule="evenodd" d="M9.30341 9.04601C8.87072 11.2704 8.63678 13.5338 8.60469 15.788H0.0130997C0.140421 12.8871 1.04099 10.0386 2.65269 7.56683H9.63672C9.52182 8.02465 9.41106 8.51531 9.30237 9.04601H9.30341Z" fill="#E06C27"/>
<path fill-rule="evenodd" clip-rule="evenodd" d="M15.8008 7.56787V15.7891H9.99576C10.0268 13.6201 10.2535 11.446 10.6676 9.31496C10.798 8.67648 10.9315 8.09857 11.0733 7.56787H15.8008Z" fill="#E06C27"/>
<path fill-rule="evenodd" clip-rule="evenodd" d="M22.341 9.32112C22.754 11.4552 22.9796 13.6303 23.0117 15.7891H17.1963V7.56787H21.9341C22.076 8.09959 22.2095 8.67751 22.341 9.32112Z" fill="#E06C27"/>
<path fill-rule="evenodd" clip-rule="evenodd" d="M23.0117 17.1707C22.9786 19.3346 22.7529 21.5015 22.3399 23.6263C22.2644 23.9938 22.1836 24.3592 22.0956 24.7288H19.0968V22.103C19.0968 20.6351 18.3412 19.3387 17.1963 18.575V17.1707H23.0117Z" fill="#E06C27"/>
<path fill-rule="evenodd" clip-rule="evenodd" d="M24.4037 17.1707H32.9922C32.8794 19.8026 32.1289 22.4171 30.7356 24.775C30.5317 24.7452 30.3226 24.7298 30.1093 24.7298H23.5249C23.588 24.4527 23.6481 24.1755 23.706 23.8953C24.1366 21.677 24.3706 19.4208 24.4037 17.1717V17.1707Z" fill="#E06C27"/>
<path fill-rule="evenodd" clip-rule="evenodd" d="M30.3536 7.56786C31.9891 10.0715 32.8711 12.9159 32.9922 15.789H24.4037C24.3716 13.5451 24.1387 11.2817 23.7071 9.0532C23.5984 8.51737 23.4866 8.02568 23.3717 7.56683H30.3536V7.56786Z" fill="#E06C27"/>
<path fill-rule="evenodd" clip-rule="evenodd" d="M12.9883 0.481995C11.8103 1.75587 10.7938 3.69081 10.0226 6.18519H3.66278C6.03634 3.27303 9.34151 1.27034 12.9883 0.481995Z" fill="#E06C27"/>
<path fill-rule="evenodd" clip-rule="evenodd" d="M15.8008 0.209961V6.18518H11.4853C12.5774 2.88603 14.1611 0.700625 15.8008 0.209961Z" fill="#E06C27"/>
<path fill-rule="evenodd" clip-rule="evenodd" d="M17.1966 0.209961C18.8414 0.698572 20.4303 2.885 21.5234 6.1862H17.1966V0.209961Z" fill="#E06C27"/>
<path fill-rule="evenodd" clip-rule="evenodd" d="M20.0172 0.481995C23.6671 1.27137 26.9733 3.27406 29.3438 6.18519H22.986C22.2148 3.69184 21.1962 1.75587 20.0172 0.481995Z" fill="#E06C27"/>
</svg>
